<svg width="142" height="30" viewBox="0 0 142 61" fill="none" xmlns="http://www.w3.org/2000/svg">
<path fill-rule="evenodd" clip-rule="evenodd" d="M47.1649 45.2013C47.789 46.4006 48.1411 47.7594 48.1411 49.2013C48.1408 54.0751 44.1046 58.0265 39.1256 58.0265C34.7564 58.0264 31.1105 54.9823 30.2852 50.9422C30.1704 50.3803 30.1102 49.7982 30.1102 49.2013C30.1102 47.7594 30.4634 46.4006 31.0874 45.2013C32.579 42.3351 35.6194 40.3762 39.1256 40.3761C42.6321 40.3761 45.6734 42.3349 47.1649 45.2013ZM121.746 40.3761C126.725 40.3762 130.761 44.3273 130.761 49.2013C130.761 49.8096 130.698 50.4026 130.579 50.9745C129.74 54.9985 126.103 58.0264 121.746 58.0265C116.767 58.0265 112.731 54.0751 112.73 49.2013C112.73 44.3273 116.767 40.3761 121.746 40.3761ZM39.1256 45.8918C40.9928 45.8918 42.5064 47.3735 42.5064 49.2013C42.5062 51.0288 40.9926 52.5108 39.1256 52.5108C37.2587 52.5106 35.7451 51.0288 35.7448 49.2013C35.7448 47.3736 37.2586 45.892 39.1256 45.8918ZM121.746 45.8918C123.613 45.892 125.127 47.3736 125.127 49.2013C125.126 51.0288 123.613 52.5106 121.746 52.5108C119.879 52.5108 118.365 51.0288 118.365 49.2013C118.365 47.3735 119.879 45.8918 121.746 45.8918ZM29.4179 43.5972H13.1325V37.0601H53.9067V43.5972H48.8333C46.8735 40.3507 43.261 38.1698 39.1256 38.1698C34.9902 38.1699 31.3776 40.3506 29.4179 43.5972ZM139.413 34.884C134.256 35.1116 131.417 33.125 130.102 31.4474H139.06C139.383 31.7359 139.478 31.9617 139.496 32.1132C139.593 32.9307 139.658 33.8614 139.698 34.8668C139.663 34.8688 139.629 34.8711 139.594 34.8733C139.533 34.8773 139.473 34.8813 139.413 34.884ZM68.9089 35.5024V33.2961H60.4041V35.5024H68.9089ZM95.9553 35.5024V33.2961H87.4505V35.5024H95.9553ZM4.28432 34.8538H2.25386V28.5344H4.28432V34.8538ZM109.621 26.2969H81.6034V11.5357H92.1827C95.0002 13.2357 99.5307 17.0744 103.476 20.6163C105.491 22.4251 107.326 24.1293 108.657 25.3822C108.918 25.6277 109.159 25.8568 109.378 26.0653C109.462 26.1456 109.544 26.2229 109.621 26.2969ZM63.698 26.2969L61.99 24.6249V11.5357H79.3495V26.2969H63.698ZM49.0391 3.81364H44.4323L44.9066 2.20631H48.5648L49.0391 3.81364ZM39.1256 54.7171C42.2374 54.7171 44.76 52.2474 44.7603 49.2013C44.7603 46.155 42.2376 43.6855 39.1256 43.6855C36.0138 43.6857 33.491 46.1551 33.491 49.2013C33.4912 52.2473 36.014 54.7169 39.1256 54.7171ZM39.1256 60.2328C45.3493 60.2328 50.3947 55.2936 50.3949 49.2013C50.3949 48.0168 50.203 46.8746 49.8491 45.8035H53.9177V53.364H111.309C112.987 57.3925 117.027 60.2328 121.746 60.2328C126.484 60.2327 130.535 57.3706 132.202 53.3176C132.25 53.3145 132.3 53.3113 132.352 53.3079C132.499 53.2986 132.66 53.2883 132.834 53.2746C133.659 53.2094 134.769 53.1021 135.893 52.932C137.003 52.7639 138.185 52.5254 139.127 52.1843C139.595 52.0151 140.067 51.7983 140.45 51.5089C140.827 51.2243 141.248 50.7672 141.32 50.1073C141.647 47.0906 142.092 40.9071 141.983 35.8546C141.952 34.4115 141.875 33.0437 141.735 31.8589C141.612 30.8228 140.934 30.0356 140.13 29.4566C138.844 28.5301 136.863 27.8623 134.64 27.3569C132.38 26.8432 129.727 26.4668 126.989 26.1945C121.72 25.6707 116.046 25.5235 112.062 25.5427C111.989 25.4724 111.905 25.3906 111.809 25.2993C111.433 24.9397 110.889 24.4228 110.219 23.7921C108.879 22.531 107.032 20.8133 105 18.9895C100.974 15.3748 96.1098 11.236 93.0752 9.48238L92.81 9.3294H56.5974L53.9177 11.9526V34.8538H51.6649V7.1231H47.8626V6.01994H52.9338V3.81364H51.3854L50.2585 0H43.2118L42.086 3.81364H40.5376V6.01994H45.6088V7.1231H4.28432V26.3281H0V37.0601H10.8786V45.8035H28.4022C28.0483 46.8745 27.8563 48.0169 27.8563 49.2013C27.8563 49.9441 27.9317 50.6708 28.0753 51.3742C29.1071 56.4256 33.6611 60.2327 39.1256 60.2328ZM121.746 54.7171C124.858 54.7169 127.38 52.2473 127.381 49.2013C127.381 46.1551 124.858 43.6857 121.746 43.6855C118.634 43.6855 116.111 46.155 116.111 49.2013C116.112 52.2474 118.634 54.7171 121.746 54.7171ZM132.852 51.0586C132.957 50.4539 133.015 49.8337 133.015 49.2013C133.015 43.1088 127.97 38.1699 121.746 38.1698C115.522 38.1698 110.477 43.1087 110.477 49.2013C110.477 49.8692 110.541 50.5225 110.657 51.1577H81.6034V28.5032H111.604V27.7512H111.613C115.558 27.7181 121.388 27.8547 126.761 28.389C128.931 28.6047 131.011 28.8865 132.853 29.2411H129.769C129.014 29.2411 128.329 29.6057 127.942 30.1934C127.538 30.8067 127.495 31.6227 127.968 32.319C129.493 34.5606 132.765 37.0261 138.336 37.1054V42.4682H139.619C139.487 45.356 139.273 48.0351 139.091 49.7464C139.089 49.7484 139.086 49.7509 139.084 49.7534C139.081 49.7565 139.077 49.7597 139.074 49.7626C138.947 49.8581 138.714 49.9828 138.346 50.1159C137.618 50.3794 136.613 50.5903 135.549 50.7515C134.584 50.8976 133.618 50.995 132.852 51.0586ZM79.3495 51.1577H56.1715V12.8662L57.5307 11.5357H59.7361V25.5395L60.0663 25.8616L62.7647 28.5032H79.3495V51.1577ZM49.4111 34.8538H6.53818V9.3294L49.4111 9.3294V34.8538Z" fill="currentColor"/>
<path fill-rule="evenodd" clip-rule="evenodd" d="M16.9371 31.1675H39.1256L28.0319 11.9526L16.9371 31.1675ZM28.8073 24.0991L31.2067 20.0083L30.7145 25.3989L34.1461 23.854L32.1588 27.4868L35.4205 28.5395L31.2067 29.1675L28.6913 29.1675H27.9308L27.0338 29.1675L25.1393 29.1675L20.6422 27.8892L24.5524 26.9106L22.5993 23.4292L26.2701 25.3989L26.5709 20.0083L28.8073 24.0991Z" fill="currentColor"/>
</svg>
