<svg xmlns="http://www.w3.org/2000/svg" width="18" height="22" viewBox="0 0 18 22" fill="none">
  <path d="M10.75 1.01953V5.15007C10.75 5.71012 10.75 5.99015 10.859 6.20406C10.9549 6.39222 11.1078 6.5452 11.296 6.64108C11.5099 6.75007 11.7899 6.75007 12.35 6.75007H16.4805M5.75 14.75L7.75 16.75L12.25 12.25M10.75 0.75H5.55C3.86984 0.75 3.02976 0.75 2.38803 1.07698C1.82354 1.3646 1.3646 1.82354 1.07698 2.38803C0.75 3.02976 0.75 3.86984 0.75 5.55V15.95C0.75 17.6302 0.75 18.4702 1.07698 19.112C1.3646 19.6765 1.82354 20.1354 2.38803 20.423C3.02976 20.75 3.86984 20.75 5.55 20.75H11.95C13.6302 20.75 14.4702 20.75 15.112 20.423C15.6765 20.1354 16.1354 19.6765 16.423 19.112C16.75 18.4702 16.75 17.6302 16.75 15.95V6.75L10.75 0.75Z" stroke="currentColor" stroke-width="1.5" stroke-linecap="round" stroke-linejoin="round"/>
</svg>